<svg width="88" height="100" viewBox="0 0 88 100" fill="none" xmlns="http://www.w3.org/2000/svg">
    <path d="M85.0253 35.0724H54.5978V21.5989H33.4022V35.0724H2.97656C1.38706 35.0724 0.0991211 36.3603 0.0991211 37.948C0.0991211 39.5357 1.38706 40.8236 2.97656 40.8236H33.4022V54.2971H40.4959V58.6623C40.4959 59.685 40.9445 60.6005 41.6476 61.2418C41.1916 61.3181 40.7138 61.378 40.2379 61.4307C38.1961 61.6687 35.8818 61.9375 35.3931 64.1047L35.3713 64.2882C35.3604 64.8749 35.5766 65.3963 35.9962 65.7995C37.2969 67.0493 40.2361 66.9458 44.9283 66.666C48.6104 66.4499 53.1936 66.1792 54.5488 67.4145C54.7795 67.627 54.8903 67.8686 54.8994 68.1992C54.9575 69.974 52.1291 70.3319 48.1236 70.6443C44.8829 70.8968 41.8256 71.1366 40.4214 72.7842C39.8728 73.4273 39.633 74.2175 39.7093 75.1367L40.7683 75.0477C40.4068 75.0949 40.0399 75.1403 39.7093 75.1966V78.1703L47.3062 78.2067C52.9593 78.2067 56.1147 81.3293 56.0783 86.7936C56.0783 93.0734 52.5905 96.2996 46.7212 96.2633C45.8039 96.2633 44.8502 96.2633 44.2253 96.1525V82.4156H39.7111V99.5295C41.1789 99.7166 43.1608 99.8619 45.8039 99.8619C50.6105 99.8619 54.5397 98.7229 56.9975 96.4849C59.3463 94.3559 60.8505 91.0552 60.8505 86.6501C60.8505 82.4302 59.3845 79.4928 56.9975 77.5491C54.7232 75.6399 51.5297 74.6862 46.9047 74.6862C44.9828 74.6862 43.1462 74.7843 41.5258 74.9568C41.4968 74.5427 41.584 74.2284 41.8074 73.9632C42.7193 72.8914 45.6658 72.6607 48.2671 72.4573C52.2835 72.1448 56.8395 71.7906 56.7178 68.1411C56.6887 67.3309 56.3672 66.6152 55.7732 66.0775C53.8512 64.3209 49.2626 64.5952 44.8229 64.8567C41.8347 65.0348 38.1271 65.2546 37.217 64.3554C37.5131 63.636 38.6575 63.4525 40.4486 63.2473C41.8728 63.0802 43.4278 62.8894 44.5704 62.1156C46.2344 61.8449 47.5078 60.4116 47.5078 58.6713V54.3043H54.5997V40.8309H85.0271C86.6148 40.8309 87.9027 39.5429 87.9027 37.9553C87.9027 36.3676 86.613 35.0724 85.0253 35.0724Z" fill="black"/>
    <path d="M31.3622 29.4319H31.9653V23.301H31.3622C29.6673 23.301 28.2958 24.6725 28.2958 26.3674C28.2958 28.0623 29.6673 29.4319 31.3622 29.4319Z" fill="black"/>
    <path d="M55.5425 23.301V29.4319H56.1456C57.8423 29.4319 59.2119 28.0604 59.2119 26.3656C59.2119 24.6707 57.8404 23.2992 56.1456 23.2992L55.5425 23.301Z" fill="black"/>
    <path d="M45.5441 20.9123L46.0437 20.9068C46.0055 17.875 46.7031 15.6951 48.1727 14.2419C50.9647 11.4843 56.3854 11.6115 61.6261 11.7441C67.0885 11.8767 72.7399 12.0129 75.7772 8.82486C77.4811 7.03555 78.1823 4.44513 77.9243 0.910098L76.115 1.04271C76.333 4.03822 75.7935 6.1745 74.4656 7.57144C72.838 9.27719 70.124 9.80944 66.9614 9.94023C67.6717 9.56966 68.3274 9.11551 68.8869 8.5106C70.5763 6.68132 71.2594 3.89653 70.9742 0L69.1612 0.132609C69.4101 3.50052 68.8815 5.83843 67.55 7.27897C65.5445 9.44613 61.8278 9.46793 57.8895 9.48973C53.6078 9.51516 49.179 9.54059 46.3779 12.3926C44.545 14.2564 43.6803 17.063 43.7275 20.9704L45.5441 20.9468C45.5423 20.9341 45.5441 20.925 45.5441 20.9123Z" fill="black"/>
    <path d="M34.1579 86.8263V86.7536C37.0934 85.7272 38.5612 83.6727 38.5612 81.1749C38.5612 78.0541 36.0289 75.3383 31.1097 75.3383C28.2468 75.3383 25.6037 76.2194 24.2467 77.1731L25.2749 80.441C26.2649 79.7816 28.2104 78.9369 30.156 78.9369C32.7609 78.9369 33.9726 80.2957 33.9726 81.9088C33.9726 84.294 31.3295 85.2495 29.2386 85.2495H27.2204V88.552H29.3113C32.0652 88.552 34.7065 89.7637 34.7065 92.5884C34.7428 94.4613 33.3477 96.4086 29.8998 96.4086C27.6255 96.4086 25.3857 95.4895 24.4683 94.9372L23.4401 98.3524C24.7244 99.1971 27.2204 100.002 30.1196 100.002C36.0289 100.002 39.4059 96.8101 39.4059 92.7737C39.4059 89.542 37.0571 87.3404 34.1579 86.8263Z" fill="black"/>
</svg>
