<svg width="100%" viewBox="0 0 1126 1121" fill="none" xmlns="http://www.w3.org/2000/svg" style="opacity: 1;">
    <path d="M504 561.011L504 502L563.011 502L592.505 531.495L622 560.989L622 620L562.989 620L533.495 590.505L504 561.011Z"
          stroke="#1BA77F" stroke-opacity="1" stroke-width="2" opacity="1" transform-origin="563px 561px"
          style="transform: translateX(8px) translateY(0px); transform-origin: 563px 561px;"></path>
    <path d="M363 561.036L363 362L563.036 362L663.018 461.482L763 560.964L763 760L562.964 760L462.982 660.518L363 561.036Z"
          stroke="#1BA77F" stroke-opacity="0.5" stroke-width="1.75" opacity="1" transform-origin="563px 561px"
          style="transform: translateX(8px) translateY(0px); transform-origin: 563px 561px;"></path>
    <path d="M201 561.065L201 200L563.065 200L744.033 380.467L925 560.935L925 922L562.935 922L381.967 741.533L201 561.065Z"
          stroke="#1BA77F" stroke-opacity="0.3" stroke-width="1.5" opacity="1" transform-origin="563px 561px"
          style="transform: translateX(8px) translateY(0px); transform-origin: 563px 561px;"></path>
    <path d="M0.999951 560.601L0.999902 1.00012L563.101 1.00007L844.051 280.7L1125 560.399L1125 1120L562.899 1120L281.949 840.3L0.999951 560.601Z"
          stroke="#1BA77F" stroke-opacity="0.15" stroke-width="1.25" opacity="1"
          transform-origin="562.9999630451202px 560.5000089406967px"
          style="transform: translateX(8px) translateY(0px); transform-origin: 563px 560.5px;"></path>
</svg>