<svg width="490" height="614" viewBox="0 0 509 640" fill="none" xmlns="http://www.w3.org/2000/svg" class="text-background"><path d="M427.57 40.8439L427.57 80.7021L387.558 80.7021L367.558 60.7802L347.559 40.8582L347.559 0.99999L387.572 0.999995L407.571 20.9219L427.57 40.8439Z" stroke="currentColor" stroke-width="1"></path><path d="M427.57 120.546L427.57 160.404L387.558 160.404L367.558 140.482L347.559 120.56L347.559 80.7017L387.572 80.7017L407.571 100.624L427.57 120.546Z" stroke="currentColor" stroke-width="1"></path><path d="M347.56 40.8439L347.56 80.7021L307.547 80.7021L287.548 60.7802L267.549 40.8582L267.549 0.99999L307.561 0.999995L327.56 20.9219L347.56 40.8439Z" stroke="currentColor" stroke-width="1"></path><path d="M347.56 120.546L347.56 160.404L307.547 160.404L287.548 140.482L267.549 120.56L267.549 80.7017L307.561 80.7017L327.56 100.624L347.56 120.546Z" stroke="currentColor" stroke-width="1"></path><path d="M267.548 40.8439L267.548 80.7021L227.536 80.7021L207.536 60.7802L187.537 40.8582L187.537 0.99999L227.55 0.999995L247.549 20.9219L267.548 40.8439Z" stroke="currentColor" stroke-width="1"></path><path d="M267.548 120.546L267.548 160.404L227.536 160.404L207.536 140.482L187.537 120.56L187.537 80.7017L227.55 80.7017L247.549 100.624L267.548 120.546Z" stroke="currentColor" stroke-width="1"></path><path d="M187.538 40.8439L187.538 80.7021L147.525 80.7021L127.526 60.7802L107.527 40.8582L107.527 0.99999L147.539 0.999995L167.538 20.9219L187.538 40.8439Z" stroke="currentColor" stroke-width="1"></path><path d="M187.538 120.546L187.538 160.404L147.525 160.404L127.526 140.482L107.527 120.56L107.527 80.7017L147.539 80.7017L167.538 100.624L187.538 120.546Z" stroke="currentColor" stroke-width="1"></path><path d="M507.582 200.248L507.582 240.106L467.569 240.106L447.57 220.184L427.571 200.262L427.571 160.404L467.583 160.404L487.582 180.326L507.582 200.248Z" stroke="currentColor" stroke-width="1"></path><path d="M507.582 279.95L507.582 319.808L467.569 319.808L447.57 299.886L427.571 279.964L427.571 240.106L467.583 240.106L487.582 260.028L507.582 279.95Z" stroke="currentColor" stroke-width="1"></path><path d="M427.57 200.248L427.57 240.106L387.558 240.106L367.558 220.184L347.559 200.262L347.559 160.404L387.572 160.404L407.571 180.326L427.57 200.248Z" stroke="currentColor" stroke-width="1"></path><path d="M427.57 279.95L427.57 319.808L387.558 319.808L367.558 299.886L347.559 279.964L347.559 240.106L387.572 240.106L407.571 260.028L427.57 279.95Z" stroke="currentColor" stroke-width="1"></path><path d="M347.56 200.248L347.56 240.106L307.547 240.106L287.548 220.184L267.549 200.262L267.549 160.404L307.561 160.404L327.56 180.326L347.56 200.248Z" stroke="currentColor" stroke-width="1"></path><path d="M347.56 279.95L347.56 319.808L307.547 319.808L287.548 299.886L267.549 279.964L267.549 240.106L307.561 240.106L327.56 260.028L347.56 279.95Z" stroke="currentColor" stroke-width="1"></path><path d="M427.57 439.354L427.57 479.212L387.558 479.212L367.558 459.29L347.559 439.368L347.559 399.51L387.572 399.51L407.571 419.432L427.57 439.354Z" stroke="currentColor" stroke-width="1"></path><path d="M347.56 359.652L347.56 399.511L307.547 399.511L287.548 379.589L267.549 359.667L267.549 319.809L307.561 319.809L327.56 339.731L347.56 359.652Z" stroke="currentColor" stroke-width="1"></path><path d="M347.56 439.354L347.56 479.212L307.547 479.212L287.548 459.29L267.549 439.368L267.549 399.51L307.561 399.51L327.56 419.432L347.56 439.354Z" stroke="currentColor" stroke-width="1"></path><path d="M267.548 359.652L267.548 399.511L227.536 399.511L207.536 379.589L187.537 359.667L187.537 319.809L227.55 319.809L247.549 339.731L267.548 359.652Z" stroke="currentColor" stroke-width="1"></path><path d="M267.548 439.354L267.548 479.212L227.536 479.212L207.536 459.29L187.537 439.368L187.537 399.51L227.55 399.51L247.549 419.432L267.548 439.354Z" stroke="currentColor" stroke-width="1"></path><path d="M187.538 359.652L187.538 399.511L147.525 399.511L127.526 379.589L107.527 359.667L107.527 319.809L147.539 319.809L167.538 339.731L187.538 359.652Z" stroke="currentColor" stroke-width="1"></path><path d="M187.538 439.354L187.538 479.212L147.525 479.212L127.526 459.29L107.527 439.368L107.527 399.51L147.539 399.51L167.538 419.432L187.538 439.354Z" stroke="currentColor" stroke-width="1"></path><path d="M507.582 519.056L507.582 558.915L467.569 558.915L447.57 538.993L427.571 519.071L427.571 479.212L467.583 479.212L487.582 499.134L507.582 519.056Z" stroke="currentColor" stroke-width="1"></path><path d="M507.582 598.758L507.582 638.617L467.569 638.617L447.57 618.695L427.571 598.773L427.571 558.915L467.583 558.915L487.582 578.836L507.582 598.758Z" stroke="currentColor" stroke-width="1"></path><path d="M427.57 519.056L427.57 558.915L387.558 558.915L367.558 538.993L347.559 519.071L347.559 479.212L387.572 479.212L407.571 499.134L427.57 519.056Z" stroke="currentColor" stroke-width="1"></path><path d="M427.57 598.758L427.57 638.617L387.558 638.617L367.558 618.695L347.559 598.773L347.559 558.915L387.572 558.915L407.571 578.836L427.57 598.758Z" stroke="currentColor" stroke-width="1"></path><path d="M347.56 519.056L347.56 558.915L307.547 558.915L287.548 538.993L267.549 519.071L267.549 479.212L307.561 479.212L327.56 499.134L347.56 519.056Z" stroke="currentColor" stroke-width="1"></path><path d="M347.56 598.758L347.56 638.617L307.547 638.617L287.548 618.695L267.549 598.773L267.549 558.915L307.561 558.915L327.56 578.836L347.56 598.758Z" stroke="currentColor" stroke-width="1"></path><path d="M107.009 359.963L107.009 399.821L66.9965 399.821L46.9974 379.899L26.9982 359.977L26.9983 320.119L67.011 320.119L87.0101 340.041L107.009 359.963Z" stroke="currentColor" stroke-width="1"></path><path d="M107.009 439.664L107.009 479.522L66.9965 479.522L46.9974 459.6L26.9982 439.679L26.9983 399.82L67.011 399.82L87.0101 419.742L107.009 439.664Z" stroke="currentColor" stroke-width="1"></path></svg>