<svg width="100" height="100" viewBox="0 0 100 100" fill="none" xmlns="http://www.w3.org/2000/svg">
    <g clip-path="url(#clip0_17_63)">
        <circle cx="50" cy="50" r="50" fill="#E2FFCC"/>
        <circle cx="50" cy="50" r="35" fill="#0B363D"/>
        <path d="M13.5979 48.3041L25.9618 44.9912L27.1316 49.3572L19.636 51.3656L23.2078 64.6954L30.7033 62.6869L31.9146 67.2075L19.5508 70.5204L13.5979 48.3041ZM40.9332 43.837L35.8529 42.3409L27.855 44.4839L29.0248 48.8499L36.5204 46.8414L40.0921 60.1712L32.5966 62.1797L33.8078 66.7002L41.8057 64.5572L45.4677 60.76L40.9332 43.837ZM46.4062 39.5131L51.2745 38.2087L57.2273 60.425L52.359 61.7294L46.4062 39.5131ZM74.2532 44.9718L76.976 55.1333L72.61 56.3032L69.8872 46.1416L55.9127 38.4981L59.9343 35.8883L71.0881 41.9686L77.7846 31.1053L82.5336 31.365L74.2532 44.9718Z" fill="#E2FFCC"/>
        <path d="M18.7216 27.4223L16.7787 29.4882L10.9511 24.0074L12.91 21.9245C13.4613 21.3383 14.0525 20.9434 14.6837 20.7398C15.313 20.5345 15.9519 20.5222 16.6004 20.7032C17.2507 20.8822 17.8784 21.2563 18.4836 21.8254C19.0906 22.3963 19.5044 23.0017 19.7248 23.6416C19.947 24.2796 19.9741 24.9217 19.806 25.568C19.6397 26.2123 19.2782 26.8305 18.7216 27.4223ZM16.8818 27.2632L17.6177 26.4807C17.9603 26.1165 18.1839 25.7494 18.2886 25.3796C18.3932 25.0061 18.3678 24.6283 18.2124 24.2462C18.0569 23.8604 17.7619 23.4632 17.3275 23.0547C16.8969 22.6497 16.4852 22.3823 16.0925 22.2524C15.7016 22.1207 15.3248 22.1185 14.962 22.2457C14.5993 22.3729 14.2467 22.6186 13.9041 22.9828L13.1655 23.7681L16.8818 27.2632Z" fill="#0B363D"/>
        <path d="M35.0327 10.3424C35.3292 11.1628 35.4259 11.9171 35.3229 12.605C35.2223 13.2921 34.9599 13.8839 34.5358 14.3806C34.1132 14.8739 33.57 15.2405 32.9063 15.4803C32.2377 15.722 31.5828 15.787 30.9416 15.6754C30.3003 15.5637 29.7214 15.2759 29.2049 14.8119C28.6883 14.3479 28.2822 13.7068 27.9865 12.8888C27.69 12.0684 27.5921 11.3146 27.6927 10.6275C27.7932 9.94046 28.0548 9.35027 28.4774 8.85696C28.8991 8.3612 29.4443 7.9925 30.1129 7.75087C30.7766 7.511 31.4291 7.44689 32.0703 7.55851C32.7131 7.6668 33.2928 7.95296 33.8094 8.41699C34.3284 8.88013 34.7362 9.52193 35.0327 10.3424ZM33.4199 10.9252C33.2279 10.3938 32.9863 9.97434 32.6952 9.66695C32.4066 9.35867 32.0849 9.16202 31.7302 9.077C31.3755 8.99197 31.0059 9.01894 30.6214 9.1579C30.2369 9.29686 29.9354 9.51241 29.717 9.80455C29.4987 10.0967 29.3758 10.454 29.3485 10.8764C29.3236 11.298 29.4072 11.7745 29.5993 12.306C29.7914 12.8374 30.0317 13.2573 30.3203 13.5656C30.6114 13.873 30.9343 14.0692 31.289 14.1542C31.6437 14.2392 32.0133 14.2123 32.3978 14.0733C32.7823 13.9344 33.0838 13.7188 33.3022 13.4267C33.5206 13.1345 33.6422 12.7777 33.6671 12.3561C33.6944 11.9336 33.612 11.4567 33.4199 10.9252Z" fill="#0B363D"/>
        <path d="M65.8467 5.90727L62.4839 13.1662L60.9492 12.4552L64.312 5.19628L65.8467 5.90727Z" fill="#0B363D"/>
        <path d="M78.5252 13.8206L79.5615 12.8873L83.9585 17.7695L82.9222 18.7027L81.2832 16.8828L76.3749 21.3033L75.256 20.061L80.1643 15.6405L78.5252 13.8206Z" fill="#0B363D"/>
        <path d="M97.3987 45.359L97.2556 47.2481L93.6823 48.8069L93.6764 48.8848L96.9741 50.964L96.8309 52.8532L91.8943 49.5528L89.0742 49.3392L89.2011 47.6643L92.0212 47.8779L97.3987 45.359Z" fill="#0B363D"/>
        <path d="M87.4025 70.9629C86.6524 70.5173 86.0988 69.9961 85.7416 69.3991C85.3831 68.8045 85.21 68.1806 85.2223 67.5276C85.2356 66.8782 85.4224 66.2501 85.7829 65.6434C86.146 65.0322 86.6107 64.5661 87.177 64.2452C87.7432 63.9243 88.3732 63.7791 89.0669 63.8096C89.7607 63.8401 90.4814 64.0774 91.2292 64.5217C91.9792 64.9673 92.5335 65.4874 92.892 66.0821C93.2506 66.6768 93.4232 67.2988 93.4099 67.9483C93.3989 68.599 93.2119 69.23 92.8487 69.8412C92.4883 70.4479 92.0249 70.9118 91.4587 71.2327C90.8933 71.5571 90.2638 71.7041 89.5701 71.6736C88.875 71.6454 88.1525 71.4085 87.4025 70.9629ZM88.2783 69.4886C88.7642 69.7772 89.2171 69.9479 89.6372 70.0006C90.0559 70.0555 90.4292 70.0031 90.7572 69.8436C91.0853 69.6841 91.3537 69.4286 91.5625 69.0771C91.7713 68.7256 91.8674 68.3676 91.8506 68.0033C91.8338 67.6389 91.7019 67.2849 91.4547 66.9412C91.2063 66.5997 90.8391 66.2846 90.3533 65.996C89.8675 65.7074 89.4152 65.5356 88.9965 65.4807C88.5764 65.428 88.2024 65.4815 87.8744 65.641C87.5464 65.8005 87.278 66.056 87.0691 66.4075C86.8603 66.759 86.7643 67.117 86.781 67.4813C86.7978 67.8457 86.9304 68.1986 87.1789 68.5401C87.426 68.8838 87.7925 69.2 88.2783 69.4886Z" fill="#0B363D"/>
        <path d="M77.9772 87.6332L76.5467 88.5358L73.7743 84.1421C73.463 83.6487 73.3085 83.1427 73.3106 82.624C73.3106 82.1067 73.4556 81.6118 73.7457 81.1394C74.0371 80.6691 74.4625 80.2575 75.0219 79.9045C75.5835 79.5502 76.1392 79.3427 76.6891 79.2821C77.2404 79.2237 77.7495 79.3058 78.2164 79.5285C78.6834 79.7512 79.0725 80.1092 79.3838 80.6025L82.1562 84.9963L80.7257 85.8989L78.0304 81.6274C77.8678 81.3697 77.6672 81.1761 77.4284 81.0465C77.1874 80.9184 76.9273 80.8624 76.648 80.8785C76.3687 80.8946 76.0914 80.9895 75.8161 81.1632C75.5386 81.3383 75.3336 81.5477 75.201 81.7915C75.0662 82.0366 75.0059 82.2949 75.0201 82.5662C75.032 82.8388 75.1193 83.104 75.2819 83.3617L77.9772 87.6332Z" fill="#0B363D"/>
        <path d="M62.1995 87.5009L63.0607 95.4544L59.9228 95.7942C59.3221 95.8592 58.7979 95.8073 58.35 95.6384C57.8998 95.4723 57.5422 95.2059 57.2772 94.839C57.0099 94.4751 56.8478 94.0303 56.7909 93.5047C56.7338 92.9766 56.7985 92.5098 56.9851 92.1046C57.172 91.7019 57.4707 91.3762 57.8812 91.1274C58.2891 90.879 58.7986 90.7216 59.4096 90.6555L61.5106 90.428L61.6569 91.7795L59.8278 91.9775C59.5067 92.0123 59.2448 92.0852 59.0421 92.1962C58.8393 92.3072 58.6957 92.4564 58.6112 92.6436C58.5241 92.8312 58.4947 93.0557 58.523 93.3172C58.5516 93.5813 58.6288 93.7982 58.7546 93.9679C58.8777 94.1379 59.0518 94.2579 59.2768 94.3278C59.4995 94.4007 59.7726 94.4195 60.0963 94.3845L61.2303 94.2617L60.518 87.683L62.1995 87.5009ZM58.2962 91.5854L55.9276 88.18L57.7839 87.979L60.1098 91.3891L58.2962 91.5854Z" fill="#0B363D"/>
        <path d="M38.9009 92.8855C38.8255 93.193 38.8705 93.4685 39.0359 93.7119C39.2013 93.9553 39.4756 94.1446 39.8586 94.2798C40.1189 94.3717 40.3517 94.4124 40.557 94.402C40.7614 94.3941 40.934 94.3432 41.0749 94.2493C41.2132 94.1545 41.311 94.0261 41.3683 93.864C41.4208 93.7307 41.4342 93.6028 41.4083 93.4805C41.38 93.3573 41.3236 93.2393 41.2391 93.1266C41.1538 93.0164 41.0482 92.9087 40.9223 92.8036C40.7957 92.7009 40.6565 92.6021 40.505 92.5071L39.8845 92.1058C39.5814 91.916 39.314 91.7112 39.0823 91.4913C38.8506 91.2715 38.6657 91.0364 38.5276 90.786C38.3895 90.5357 38.3081 90.2695 38.2834 89.9874C38.2563 89.7044 38.2969 89.4053 38.4054 89.0901C38.5708 88.6293 38.83 88.2706 39.1829 88.0141C39.5325 87.7591 39.9588 87.6155 40.4617 87.5831C40.9614 87.5523 41.5182 87.6453 42.1321 87.862C42.7411 88.0769 43.2386 88.3575 43.6246 88.7036C44.0081 89.0488 44.2618 89.4491 44.3856 89.9042C44.506 90.361 44.4766 90.8629 44.2974 91.4099L42.754 90.8652C42.826 90.6062 42.8281 90.3694 42.7603 90.1549C42.689 89.942 42.5606 89.7544 42.3748 89.5922C42.1857 89.4315 41.9536 89.3027 41.6786 89.2056C41.4085 89.1103 41.1601 89.0668 40.9334 89.0752C40.7043 89.0827 40.5098 89.1369 40.3499 89.2379C40.19 89.3389 40.078 89.4802 40.0138 89.6619C39.954 89.8314 39.9541 89.9916 40.0141 90.1425C40.0715 90.2926 40.1818 90.442 40.3447 90.5906C40.5052 90.7384 40.7112 90.894 40.9629 91.0574L41.7115 91.5536C42.2929 91.9328 42.7097 92.3519 42.9619 92.811C43.2142 93.27 43.2407 93.7779 43.0414 94.3344C42.8827 94.7921 42.6203 95.1482 42.2542 95.4029C41.8857 95.6567 41.4516 95.8031 40.9518 95.8421C40.452 95.8811 39.927 95.8035 39.3769 95.6093C38.817 95.4117 38.3622 95.1435 38.0123 94.8046C37.66 94.4648 37.4274 94.0831 37.3146 93.6594C37.2018 93.2357 37.221 92.7979 37.3723 92.3459L38.9009 92.8855Z" fill="#0B363D"/>
        <path d="M28.6667 82.7517L23.0462 88.4447L19.2101 84.6574L20.1898 83.6651L22.8223 86.264L24.1615 84.9075L21.7264 82.5034L22.7062 81.511L25.1413 83.9151L26.4833 82.5558L23.8397 79.9459L24.8194 78.9535L28.6667 82.7517Z" fill="#0B363D"/>
        <path d="M16.9088 70.5237L9.41848 73.3335L8.82441 71.7499L15.009 69.4298L13.8044 66.2186L15.1101 65.7288L16.9088 70.5237Z" fill="#0B363D"/>
        <path d="M11.401 54.794L3.42082 54.2317L3.7931 48.948L5.18418 49.046L4.93078 52.6425L6.83231 52.7765L7.06101 49.5307L8.45209 49.6287L8.2234 52.8745L11.5199 53.1068L11.401 54.794Z" fill="#0B363D"/>
    </g>
    <defs>
        <clipPath id="clip0_17_63">
            <rect width="100" height="100" fill="#0B363D"/>
        </clipPath>
    </defs>
</svg>
