<svg width="100" height="100" viewBox="0 0 100 100" fill="none" xmlns="http://www.w3.org/2000/svg">
    <path d="M54.7318 63.5254C57.8233 62.2233 60.1419 59.7738 61.4116 56.8278C62.7129 53.8086 62.9021 50.2848 61.664 46.9645V46.9564C60.4337 43.6442 58.0047 41.154 55.0788 39.8112C52.1608 38.4684 48.7381 38.2731 45.5204 39.5508C42.3106 40.8203 39.8974 43.3268 38.5961 46.346C37.2949 49.3571 37.1056 52.889 38.3438 56.2093V56.2175L38.3595 56.2093C38.9905 57.902 39.9605 59.4238 41.1829 60.6852C42.4211 61.9629 43.8958 62.972 45.5204 63.6149C47.3816 64.3473 48.3122 66.4958 47.6024 68.4164L47.6182 68.4245L36.7744 97.583C36.0646 99.5117 33.9747 100.48 32.1056 99.7477C31.9952 99.707 31.8927 99.6582 31.7901 99.6094C19.0536 94.4662 9.51096 84.5215 4.35323 72.5749C-0.867586 60.5062 -1.6168 46.403 3.328 33.1218C3.36743 33.0078 3.41475 32.902 3.46207 32.7962C8.44629 19.6533 18.0835 9.80632 29.6608 4.48406C41.3564 -0.895176 55.0315 -1.66829 67.9021 3.43425C77.6103 7.2754 85.4889 13.9079 91.0094 22.0947C96.6876 30.5094 99.8658 40.6006 99.9841 51.0335V51.0661H99.9999V51.9531C99.9999 52.0833 99.992 52.2054 99.9841 52.3275C99.9447 55.2897 99.6608 58.2438 99.1245 61.1654C98.5804 64.1276 97.7602 67.1061 96.664 70.0684L96.6797 70.0765C94.1403 76.9124 90.2523 83.0241 85.3548 88.0778C80.4573 93.1315 74.5346 97.1354 67.91 99.764C66.0409 100.496 63.951 99.528 63.2412 97.5993L52.3895 68.4326C51.6797 66.5039 52.6182 64.3473 54.4873 63.6149C54.5662 63.5824 54.645 63.5498 54.7318 63.5254ZM68.0047 59.8714C66.4195 63.5417 63.7854 66.7318 60.3233 68.9209L68.6435 91.2923C72.9652 89.1276 76.869 86.2468 80.2286 82.78C84.4242 78.4505 87.7444 73.2341 89.9132 67.4072L89.9289 67.4154V67.4072C90.8517 64.917 91.5536 62.3617 92.0267 59.7819C92.492 57.2428 92.7365 54.7201 92.7759 52.238C92.7681 52.1403 92.7681 52.0427 92.7681 51.945V51.058H92.7838C92.6813 42.1875 89.9447 33.5775 85.0788 26.3591C80.3627 19.3604 73.6277 13.7044 65.339 10.4167C54.3059 6.04656 42.6103 6.6976 32.6261 11.2874C22.705 15.8447 14.4558 24.2757 10.1971 35.5062C10.1734 35.5957 10.1419 35.6934 10.1103 35.7829C5.87532 47.168 6.50623 59.2367 10.9542 69.5475C14.9447 78.8005 22.0031 86.6455 31.3643 91.3167L39.6924 68.9372C38.3674 68.099 37.1529 67.1143 36.0725 65.9994C34.1403 64.0055 32.6103 61.5967 31.6088 58.8949L31.6245 58.8867C29.6766 53.6458 29.9684 48.0876 32.0188 43.335C34.0141 38.7044 37.6892 34.8389 42.5946 32.78C42.8312 32.6579 43.0756 32.5521 43.3438 32.487C48.3122 30.6315 53.5567 30.9652 58.052 33.0322C62.5394 35.0912 66.2854 38.8835 68.2807 43.9453C68.399 44.1895 68.5015 44.4499 68.5646 44.7184C70.3312 49.821 70.0078 55.2328 68.0047 59.8714Z" fill="black"/>
    <path d="M55.765 67.1061C64.0694 63.8184 68.2098 54.2074 65.0237 45.638C61.8454 37.0687 52.5316 32.7962 44.2271 36.084C35.9306 39.3718 31.7823 48.9828 34.9685 57.544C36.601 61.9385 39.9685 65.4134 44.2271 67.098L33.3833 96.2565C9.47163 86.792 -2.46844 59.1227 6.71137 34.4483C15.8833 9.77378 42.7051 -2.54719 66.6167 6.92547C84.8817 14.1602 96.1672 32.0231 96.3801 51.058V51.945C96.3407 57.5358 95.347 63.208 93.2965 68.7419C88.5883 81.4046 78.8959 91.4063 66.6246 96.2647L55.765 67.1061Z" fill="black"/>
</svg>
