<svg width="100" height="100" viewBox="0 0 100 100" fill="none" xmlns="http://www.w3.org/2000/svg">
    <g clip-path="url(#clip0_130_13)">
        <path d="M42.6 15.7H67.6C67.5 18 67.6 20.4 67.4 22.7H52.4V32H65.2V38.9H52.4V54.6H42.6V15.6V15.7ZM35.5 78.6C37.2 77 39.8 76.8 41.9 77.4C43.3 77.8 44.6 78.8 44.9 80.2C44.9 81.1 45 82 44.5 82.8C43.9 83.5 43 83.9 42.1 84.2C43.5 84.4 44.9 85.2 45.3 86.6C45.5 87.9 45.5 89.5 44.5 90.6C43.3 91.9 41.5 92.3 39.8 92.4C38.2628 92.4508 36.7516 91.9939 35.5 91.1C34.6326 90.3176 34.0665 89.2562 33.9 88.1H37.3C37.6 89.8 39.8 90.3 41.1 89.3C41.8 88.7 41.8 87.6 41.6 86.7C40.9 85.4 39.2 85.6 38 85.6V83C38.8 83 39.7 83.1 40.5 82.8C41.4 82.3 41.5 81 41 80.2C40 79 37.7 79.6 37.6 81.2H34.1C34.3 80.2 34.7 79.2 35.5 78.5V78.6ZM50.7 86.1C50.7 87.1 50.5 88.1 51 88.9C51.7 89.9 53.2 89.9 54.1 89.2C54.9 88.5 54.9 87.3 54.7 86.3C54.7 85.5 53.7 85 52.9 85.1C52 85.1 51.3 85.6 50.7 86.1ZM49.5 78C51.4 77 53.6 77 55.5 77.7C56.2406 77.9761 56.8827 78.4653 57.3455 79.106C57.8082 79.7467 58.0708 80.5102 58.1 81.3H55C54.8 79.6 52.4 79.3 51.3 80.4C50.5 81.4 50.8 82.7 50.8 83.8C52.8 81.9 56.5 82.3 57.9 84.6C58.6 85.6 58.6 86.9 58.5 88.1C58.4112 88.9383 58.0938 89.7361 57.5824 90.4062C57.0709 91.0764 56.3852 91.5931 55.6 91.9C53.8 92.7 51.6 92.7 49.8 91.9C49.0424 91.5347 48.3993 90.9686 47.9409 90.2634C47.4825 89.5581 47.2263 88.7407 47.2 87.9V82.3C47.195 81.4371 47.4134 80.5875 47.834 79.834C48.2545 79.0805 48.8629 78.4487 49.6 78H49.5ZM65.2 79.9C64.4 80.1 64 81.1 64 81.9V87C64 87.9 64.1 88.8 64.8 89.3C65.8 89.9 67.5 89.8 67.8 88.5C68.3 87.2 68 85.8 68.1 84.4C68.1 83.1 68.3 81.8 67.8 80.6C67.3 79.7 66.1 79.6 65.2 79.9ZM64.4 77.3C66.2 77 68.2 77.1 69.8 78.1C71.2 79.1 71.8 80.8 71.8 82.4L71.7 87.8C71.6472 88.6735 71.3463 89.5138 70.8326 90.2224C70.3189 90.9309 69.6138 91.4782 68.8 91.8C67.792 92.2314 66.6967 92.4199 65.6024 92.3505C64.5081 92.281 63.4454 91.9554 62.5 91.4C61.8407 90.9411 61.3044 90.3271 60.9382 89.6121C60.572 88.8972 60.3872 88.1032 60.4 87.3V82.7C60.4 81.4 60.6 80.1 61.4 79.1C62.1506 78.1583 63.2159 77.5191 64.4 77.3Z" fill="black"/>
        <path d="M42.6 15.7V54.7H52.4V38.8H65.2V32H52.4V22.7H67.4C67.6 20.4 67.4 18 67.5 15.7H42.6ZM17.2 0H82.9C83.8 0 84.6 0 85.5 0.2C86.5572 0.48464 87.4917 1.10841 88.1601 1.97553C88.8285 2.84264 89.1939 3.90518 89.2 5V70.4H17.2V16.9C17.4 12.9 17.2 8.8 17.2 4.8V0Z" fill="white"/>
        <path d="M15 1.29998C15.7 0.799976 16.4 0.299976 17.2 0.0999756V4.79998C17.2 8.79998 17.4 12.8 17.2 16.8V70.4L10.2 74.5L1.90002 79.5V9.19998L14.9 1.19998L15 1.29998Z" fill="#CCCCCC"/>
        <path d="M64.4 77.3C63.2159 77.5191 62.1506 78.1583 61.4 79.1C60.6 80.1 60.4 81.4 60.4 82.7V87.3C60.4 88.9 61.1 90.6 62.5 91.4C63.4481 91.9433 64.5047 92.2699 65.5939 92.3563C66.6832 92.4428 67.7781 92.2869 68.8 91.9C69.6287 91.5711 70.344 91.0085 70.8589 90.2806C71.3737 89.5527 71.6659 88.6909 71.7 87.8V82.4C71.7 80.8 71.2 79.1 69.7 78.1C68.0954 77.1804 66.2046 76.895 64.4 77.3ZM49.5 77.9C48.7629 78.3487 48.1545 78.9805 47.7339 79.734C47.3134 80.4875 47.095 81.3371 47.1 82.2V87.8C47.1 89.5 48.1 91.1 49.7 91.8C51.5 92.6 53.7 92.6 55.5 91.8C56.3039 91.5081 57.0104 90.9978 57.5404 90.3266C58.0703 89.6553 58.4026 88.8496 58.5 88C58.5 86.8 58.5 85.6 57.8 84.5C56.4 82.2 52.6 81.8 50.7 83.7C50.7 82.6 50.4 81.3 51.2 80.3C52.2 79.3 54.7 79.5 54.9 81.3H58.1C58.0984 80.5046 57.8597 79.7277 57.4144 79.0686C56.9691 78.4096 56.3374 77.8983 55.6 77.6C53.6 76.9 51.4 76.9 49.6 77.9H49.5ZM35.5 78.6C34.7 79.3 34.3 80.3 34.1 81.3H37.6C37.7 79.7 40 79.1 41 80.3C41.5 81.1 41.4 82.4 40.5 82.9C39.7 83.2 38.8 83.1 38 83.1V85.6C39.2 85.6 41 85.4 41.6 86.7C41.8 87.6 41.8 88.7 41.1 89.3C39.8 90.3 37.6 89.8 37.3 88.1H34C34.1665 89.2562 34.7326 90.3176 35.6 91.1C36.8516 91.9939 38.3628 92.4508 39.9 92.4C40.7746 92.4455 41.6486 92.299 42.4605 91.9707C43.2725 91.6425 44.0027 91.1405 44.6 90.5C45.6 89.5 45.6 87.9 45.4 86.5C45 85.2 43.6 84.5 42.2 84.2C43.2 83.9 44 83.5 44.6 82.8C45.1 82 45 81.1 44.9 80.2C44.7 78.8 43.4 77.8 42 77.4C39.9 76.8 37.3 77 35.6 78.6H35.5ZM89.2 15.6H96V100H15C12.3 100.1 10 97.6 10 95V74.5L17 70.4H89V15.6H89.2Z" fill="#333333"/>
        <path d="M65.2 79.9C66.2 79.5 67.2 79.7 67.8 80.6C68.3 81.8 68 83.1 68.1 84.4C68.1 85.8 68.3 87.2 67.9 88.5C67.5 89.8 65.9 89.9 64.9 89.3C64.1 88.8 63.9 87.9 63.9 87L64 82C64 81.1 64.4 80.1 65.2 79.9ZM50.7 86.1C51.3 85.6 52 85.1 52.9 85.1C53.7 85 54.6 85.5 54.7 86.3C54.9 87.3 54.9 88.5 54.1 89.3C53.2 89.9 51.7 89.8 51.1 88.9C50.5 88.1 50.7 87 50.7 86.1Z" fill="#333333"/>
    </g>
    <defs>
        <clipPath id="clip0_130_13">
            <rect width="96" height="100" fill="white" transform="translate(1)"/>
        </clipPath>
    </defs>
</svg>
