<svg width="100" height="100" viewBox="0 0 100 100" fill="none" xmlns="http://www.w3.org/2000/svg">
<g clip-path="url(#clip0_109_8)">
<path fill-rule="evenodd" clip-rule="evenodd" d="M79.4737 17.0643H20.3812V76.1568H79.4737V17.0643ZM17.9823 14.6653V78.5557H81.8727V14.6653H17.9823Z" fill="white"/>
<path d="M-0.00012207 49.9046L16.0293 33.9487V66.0076L-0.00012207 49.9046Z" fill="white"/>
<path d="M84.1176 65.8605V33.9487L100 49.9782L84.1176 65.8605Z" fill="white"/>
<path d="M69.2646 80.5664H30.6617L50.147 99.9047L69.2646 80.5664Z" fill="white"/>
<path d="M37.2091 12.4353L49.9428 0.095459L62.4265 12.4353H58.75L55.7353 9.53697L77.9412 48.4341L75.7353 49.6105L49.9428 5.19873L24.3382 49.6841L22.1124 48.4048L44.4292 9.15345L41.4099 12.4353H37.2091Z" fill="white"/>
</g>
<defs>
<clipPath id="clip0_109_8">
<rect width="100" height="100" fill="white"/>
</clipPath>
</defs>
</svg>
