<svg width="500" height="120" viewBox="0 0 500 120" fill="none" xmlns="http://www.w3.org/2000/svg">
<path d="M56.8673 96.6242H7.90128V26.6867H21.8985V82.6269H56.8673V96.6242Z" fill="#FFFF00"/>
<path d="M82.1794 83.8462C82.6996 84.0087 83.2198 84.1226 83.74 84.1876C84.2603 84.2201 84.7805 84.2363 85.3007 84.2363C86.6013 84.2363 87.853 84.0575 89.0561 83.6999C90.2591 83.3422 91.3808 82.8383 92.4212 82.188C93.4942 81.5052 94.4371 80.6923 95.25 79.7494C96.0953 78.774 96.7781 77.7011 97.2983 76.5306L107.053 86.3335C105.817 88.0893 104.386 89.6662 102.761 91.0643C101.167 92.4624 99.428 93.6491 97.5422 94.6245C95.6889 95.6 93.7218 96.3315 91.6409 96.8192C89.5925 97.3395 87.4791 97.5996 85.3007 97.5996C81.6266 97.5996 78.1639 96.9168 74.9125 95.5512C71.6936 94.1856 68.8649 92.2835 66.4264 89.845C64.0203 87.4065 62.1183 84.5127 60.7202 81.1638C59.3221 77.7823 58.623 74.0757 58.623 70.044C58.623 65.9147 59.3221 62.1431 60.7202 58.7292C62.1183 55.3152 64.0203 52.4052 66.4264 49.9992C68.8649 47.5932 71.6936 45.7236 74.9125 44.3905C78.1639 43.0575 81.6266 42.3909 85.3007 42.3909C87.4791 42.3909 89.6088 42.651 91.6897 43.1713C93.7706 43.6915 95.7377 44.4393 97.591 45.4147C99.4768 46.3901 101.233 47.5932 102.858 49.0238C104.484 50.4219 105.915 51.9988 107.15 53.7545L82.1794 83.8462ZM89.0073 56.3882C88.3895 56.1606 87.7718 56.0143 87.154 55.9492C86.5687 55.8842 85.951 55.8517 85.3007 55.8517C83.4799 55.8517 81.7567 56.1931 80.131 56.8759C78.5378 57.5262 77.1397 58.4691 75.9367 59.7046C74.7662 60.9401 73.8395 62.4358 73.1567 64.1915C72.474 65.9147 72.1326 67.8656 72.1326 70.044C72.1326 70.5317 72.1488 71.0845 72.1813 71.7022C72.2464 72.32 72.3276 72.954 72.4252 73.6043C72.5552 74.2221 72.7016 74.8236 72.8641 75.4088C73.0267 75.9941 73.238 76.5143 73.4981 76.9695L89.0073 56.3882Z" fill="#FFFF00"/>
<path d="M180.306 96.6242H167.041V63.4599C167.041 62.5496 166.862 61.6879 166.504 60.8751C166.179 60.0622 165.708 59.3469 165.09 58.7292C164.472 58.1114 163.757 57.64 162.944 57.3148C162.131 56.9572 161.269 56.7783 160.359 56.7783C159.449 56.7783 158.587 56.9572 157.774 57.3148C156.994 57.64 156.295 58.1114 155.677 58.7292C155.092 59.3469 154.62 60.0622 154.263 60.8751C153.938 61.6879 153.775 62.5496 153.775 63.4599V96.6242H140.461V63.4599C140.461 62.5496 140.282 61.6879 139.924 60.8751C139.599 60.0622 139.128 59.3469 138.51 58.7292C137.892 58.1114 137.177 57.64 136.364 57.3148C135.551 56.9572 134.689 56.7783 133.779 56.7783C132.869 56.7783 132.007 56.9572 131.194 57.3148C130.414 57.64 129.715 58.1114 129.097 58.7292C128.512 59.3469 128.04 60.0622 127.683 60.8751C127.357 61.6879 127.195 62.5496 127.195 63.4599V96.6242H113.88V44.3905H117.099L120.708 48.3897C122.562 46.8291 124.594 45.6261 126.805 44.7807C129.048 43.9028 131.373 43.4639 133.779 43.4639C136.218 43.4639 138.591 43.9191 140.9 44.8295C143.241 45.7399 145.289 47.3168 147.045 49.5602C147.858 48.4548 148.784 47.5119 149.825 46.7315C150.865 45.9512 151.954 45.3172 153.092 44.8295C154.263 44.3418 155.466 44.0004 156.701 43.8053C157.937 43.5777 159.156 43.4639 160.359 43.4639C163.123 43.4639 165.708 43.9841 168.114 45.0246C170.552 46.065 172.666 47.4956 174.454 49.3164C176.275 51.1047 177.705 53.2181 178.746 55.6566C179.786 58.0951 180.306 60.6963 180.306 63.4599V96.6242Z" fill="#FFFF00"/>
<path d="M261.217 96.6242H247.903V44.3905H251.122L255.511 49.4627C257.657 47.5119 260.079 46.0162 262.778 44.9758C265.509 43.9028 268.354 43.3663 271.313 43.3663C274.499 43.3663 277.507 43.9841 280.336 45.2196C283.164 46.4227 285.635 48.0971 287.749 50.243C289.862 52.3565 291.52 54.8438 292.723 57.705C293.959 60.5337 294.577 63.5575 294.577 66.7764V96.6242H281.262V66.7764C281.262 65.4108 281.002 64.1265 280.482 62.9235C279.962 61.6879 279.246 60.615 278.336 59.7046C277.426 58.7942 276.369 58.0789 275.166 57.5587C273.963 57.0384 272.678 56.7783 271.313 56.7783C269.915 56.7783 268.598 57.0384 267.362 57.5587C266.127 58.0789 265.054 58.7942 264.144 59.7046C263.233 60.615 262.518 61.6879 261.998 62.9235C261.477 64.1265 261.217 65.4108 261.217 66.7764V96.6242Z" fill="#FFFF00"/>
<path d="M329.594 96.6242C326.375 96.6242 323.351 96.0226 320.523 94.8196C317.694 93.5841 315.207 91.9096 313.061 89.7962C310.947 87.6503 309.273 85.163 308.037 82.3343C306.834 79.5056 306.233 76.4818 306.233 73.2629V57.7537H299.746V44.4881H306.233V23.6141H319.499V44.4881H339.69V57.7537H319.499V73.2629C319.499 74.661 319.759 75.9778 320.279 77.2133C320.799 78.4164 321.514 79.4731 322.425 80.3835C323.335 81.2938 324.408 82.0254 325.644 82.5781C326.879 83.0984 328.196 83.3585 329.594 83.3585H339.69V96.6242H329.594Z" fill="#FFFF00"/>
<path d="M360.515 96.6242H347.2V44.3905H350.419L354.809 50.5844C356.955 48.6336 359.393 47.138 362.124 46.0975C364.855 45.0246 367.684 44.4881 370.61 44.4881H382.364V57.7537H370.61C369.212 57.7537 367.896 58.0139 366.66 58.5341C365.424 59.0543 364.351 59.7696 363.441 60.68C362.531 61.5904 361.815 62.6633 361.295 63.8989C360.775 65.1344 360.515 66.4512 360.515 67.8493V96.6242Z" fill="#FFFF00"/>
<path d="M438.061 70.044C438.061 73.9457 437.362 77.5873 435.963 80.9687C434.565 84.3176 432.663 87.2276 430.257 89.6987C427.851 92.1372 425.023 94.0718 421.771 95.5024C418.552 96.9005 415.089 97.5996 411.383 97.5996C407.709 97.5996 404.246 96.9005 400.995 95.5024C397.776 94.0718 394.947 92.1372 392.509 89.6987C390.103 87.2276 388.2 84.3176 386.802 80.9687C385.404 77.5873 384.705 73.9457 384.705 70.044C384.705 66.0773 385.404 62.4032 386.802 59.0218C388.2 55.6404 390.103 52.7304 392.509 50.2918C394.947 47.8208 397.776 45.8862 400.995 44.4881C404.246 43.09 407.709 42.3909 411.383 42.3909C415.089 42.3909 418.552 43.0575 421.771 44.3905C425.023 45.6911 427.851 47.5607 430.257 49.9992C432.663 52.4052 434.565 55.3152 435.963 58.7292C437.362 62.1106 438.061 65.8822 438.061 70.044ZM424.649 70.044C424.649 67.8981 424.291 65.9635 423.576 64.2403C422.893 62.4845 421.95 60.9889 420.747 59.7534C419.544 58.4853 418.13 57.5262 416.504 56.8759C414.911 56.1931 413.204 55.8517 411.383 55.8517C409.562 55.8517 407.839 56.1931 406.213 56.8759C404.62 57.5262 403.222 58.4853 402.019 59.7534C400.848 60.9889 399.922 62.4845 399.239 64.2403C398.556 65.9635 398.215 67.8981 398.215 70.044C398.215 72.0599 398.556 73.9294 399.239 75.6527C399.922 77.3759 400.848 78.8715 402.019 80.1396C403.222 81.4076 404.62 82.4156 406.213 83.1634C407.839 83.8787 409.562 84.2363 411.383 84.2363C413.204 84.2363 414.911 83.895 416.504 83.2122C418.13 82.5294 419.544 81.5702 420.747 80.3347C421.95 79.0991 422.893 77.6035 423.576 75.8478C424.291 74.092 424.649 72.1574 424.649 70.044Z" fill="#FFFF00"/>
<path d="M458.739 96.6242H445.425V44.3905H448.644L453.033 49.4627C455.179 47.5119 457.601 46.0162 460.3 44.9758C463.031 43.9028 465.876 43.3663 468.835 43.3663C472.021 43.3663 475.029 43.9841 477.858 45.2196C480.686 46.4227 483.157 48.0971 485.271 50.243C487.384 52.3565 489.042 54.8438 490.245 57.705C491.481 60.5337 492.099 63.5575 492.099 66.7764V96.6242H478.784V66.7764C478.784 65.4108 478.524 64.1265 478.004 62.9235C477.484 61.6879 476.768 60.615 475.858 59.7046C474.948 58.7942 473.891 58.0789 472.688 57.5587C471.485 57.0384 470.201 56.7783 468.835 56.7783C467.437 56.7783 466.12 57.0384 464.885 57.5587C463.649 58.0789 462.576 58.7942 461.666 59.7046C460.755 60.615 460.04 61.6879 459.52 62.9235C459 64.1265 458.739 65.4108 458.739 66.7764V96.6242Z" fill="#FFFF00"/>
<path d="M240.538 70.044C240.538 73.9456 239.839 77.5872 238.441 80.9686C237.043 84.3176 235.141 87.2276 232.735 89.6986C230.329 92.1372 227.5 94.0718 224.249 95.5024C221.03 96.9005 217.567 97.5995 213.861 97.5995C210.187 97.5995 206.724 96.9005 203.473 95.5024C200.254 94.0718 197.425 92.1372 194.986 89.6986C192.58 87.2276 190.678 84.3176 189.28 80.9686C187.882 77.5872 187.183 73.9456 187.183 70.044C187.183 66.0773 187.882 62.4032 189.28 59.0217C190.678 55.6403 192.58 52.7303 194.986 50.2918C197.425 47.8207 200.254 45.8861 203.473 44.488C206.724 43.0899 210.187 42.3909 213.861 42.3909C217.567 42.3909 221.03 43.0574 224.249 44.3905C227.5 45.691 230.329 47.5606 232.735 49.9991C235.141 52.4052 237.043 55.3151 238.441 58.7291C239.839 62.1106 240.538 65.8822 240.538 70.044Z" fill="#FFFF00"/>
<path d="M221.361 85.599H206.361C207.847 95.0949 210.649 101.495 213.861 101.495C217.072 101.495 219.874 95.0949 221.361 85.599Z" fill="#FFFF00"/>
<path d="M221.275 53.8552H206.447C207.954 44.6553 210.71 38.4952 213.861 38.4952C217.011 38.4952 219.768 44.6553 221.275 53.8552Z" fill="#FFFF00"/>
<path d="M227 30C218.429 30 215 35 215 35H239C239 35 235.571 30 227 30Z" fill="#FFFF00"/>
<path d="M227 41C235.571 41 239 36 239 36L215 36C215 36 218.429 41 227 41Z" fill="#FFFF00"/>
</svg>
