<svg width="200" height="51" viewBox="0 0 200 51" fill="none" xmlns="http://www.w3.org/2000/svg">
    <path d="M22.7293 40.2363H3.11992V12.2285H8.72538V34.6309H22.7293V40.2363ZM32.866 35.1191C33.0743 35.1842 33.2827 35.2298 33.491 35.2559C33.6993 35.2689 33.9077 35.2754 34.116 35.2754C34.6368 35.2754 35.1381 35.2038 35.6199 35.0605C36.1017 34.9173 36.5509 34.7155 36.9676 34.4551C37.3973 34.1816 37.7749 33.8561 38.1004 33.4785C38.4389 33.0879 38.7124 32.6582 38.9207 32.1895L42.8269 36.1152C42.3322 36.8184 41.7592 37.4499 41.1082 38.0098C40.4702 38.5697 39.7736 39.0449 39.0184 39.4355C38.2762 39.8262 37.4884 40.1191 36.6551 40.3145C35.8348 40.5228 34.9884 40.627 34.116 40.627C32.6447 40.627 31.2579 40.3535 29.9559 39.8066C28.6668 39.2598 27.534 38.498 26.5574 37.5215C25.5939 36.5449 24.8322 35.3861 24.2723 34.0449C23.7124 32.6908 23.4324 31.2064 23.4324 29.5918C23.4324 27.9382 23.7124 26.4277 24.2723 25.0605C24.8322 23.6934 25.5939 22.528 26.5574 21.5645C27.534 20.6009 28.6668 19.8522 29.9559 19.3184C31.2579 18.7845 32.6447 18.5176 34.116 18.5176C34.9884 18.5176 35.8413 18.6217 36.6746 18.8301C37.5079 19.0384 38.2957 19.3379 39.0379 19.7285C39.7931 20.1191 40.4962 20.6009 41.1473 21.1738C41.7983 21.7337 42.3712 22.3652 42.866 23.0684L32.866 35.1191ZM35.6004 24.123C35.353 24.0319 35.1056 23.9733 34.8582 23.9473C34.6238 23.9212 34.3764 23.9082 34.116 23.9082C33.3868 23.9082 32.6967 24.0449 32.0457 24.3184C31.4077 24.5788 30.8478 24.9564 30.366 25.4512C29.8973 25.946 29.5262 26.5449 29.2527 27.248C28.9793 27.9382 28.8426 28.7194 28.8426 29.5918C28.8426 29.7871 28.8491 30.0085 28.8621 30.2559C28.8881 30.5033 28.9207 30.7572 28.9598 31.0176C29.0118 31.265 29.0704 31.5059 29.1355 31.7402C29.2006 31.9746 29.2853 32.1829 29.3894 32.3652L35.6004 24.123ZM72.1629 40.2363H66.8504V26.9551C66.8504 26.5905 66.7788 26.2454 66.6355 25.9199C66.5053 25.5944 66.3165 25.3079 66.0691 25.0605C65.8217 24.8132 65.5353 24.6243 65.2098 24.4941C64.8842 24.3509 64.5392 24.2793 64.1746 24.2793C63.81 24.2793 63.465 24.3509 63.1394 24.4941C62.8269 24.6243 62.547 24.8132 62.2996 25.0605C62.0652 25.3079 61.8764 25.5944 61.7332 25.9199C61.603 26.2454 61.5379 26.5905 61.5379 26.9551V40.2363H56.2059V26.9551C56.2059 26.5905 56.1342 26.2454 55.991 25.9199C55.8608 25.5944 55.672 25.3079 55.4246 25.0605C55.1772 24.8132 54.8907 24.6243 54.5652 24.4941C54.2397 24.3509 53.8947 24.2793 53.5301 24.2793C53.1655 24.2793 52.8204 24.3509 52.4949 24.4941C52.1824 24.6243 51.9025 24.8132 51.6551 25.0605C51.4207 25.3079 51.2319 25.5944 51.0887 25.9199C50.9585 26.2454 50.8934 26.5905 50.8934 26.9551V40.2363H45.5613V19.3184H46.8504L48.2957 20.9199C49.0379 20.2949 49.8517 19.8132 50.7371 19.4746C51.6355 19.123 52.5665 18.9473 53.5301 18.9473C54.5066 18.9473 55.4572 19.1296 56.3816 19.4941C57.3191 19.8587 58.1394 20.4902 58.8426 21.3887C59.1681 20.946 59.5392 20.5684 59.9559 20.2559C60.3725 19.9434 60.8087 19.6895 61.2644 19.4941C61.7332 19.2988 62.215 19.1621 62.7098 19.084C63.2046 18.9928 63.6928 18.9473 64.1746 18.9473C65.2814 18.9473 66.3165 19.1556 67.2801 19.5723C68.2566 19.9889 69.103 20.5618 69.8191 21.291C70.5483 22.0072 71.1212 22.8535 71.5379 23.8301C71.9546 24.8066 72.1629 25.8483 72.1629 26.9551V40.2363ZM96.284 29.5918C96.284 31.1543 96.004 32.6126 95.4441 33.9668C94.8842 35.3079 94.1225 36.4733 93.159 37.4629C92.1954 38.4395 91.0626 39.2142 89.7605 39.7871C88.4715 40.347 87.0848 40.627 85.6004 40.627C84.129 40.627 82.7423 40.347 81.4402 39.7871C80.1512 39.2142 79.0184 38.4395 78.0418 37.4629C77.0782 36.4733 76.3165 35.3079 75.7566 33.9668C75.1967 32.6126 74.9168 31.1543 74.9168 29.5918C74.9168 28.0033 75.1967 26.5319 75.7566 25.1777C76.3165 23.8236 77.0782 22.6582 78.0418 21.6816C79.0184 20.6921 80.1512 19.9173 81.4402 19.3574C82.7423 18.7975 84.129 18.5176 85.6004 18.5176C87.0848 18.5176 88.4715 18.7845 89.7605 19.3184C91.0626 19.8392 92.1954 20.5879 93.159 21.5645C94.1225 22.528 94.8842 23.6934 95.4441 25.0605C96.004 26.4147 96.284 27.9251 96.284 29.5918ZM90.9129 29.5918C90.9129 28.7324 90.7697 27.9577 90.4832 27.2676C90.2098 26.5645 89.8322 25.9655 89.3504 25.4707C88.8686 24.9629 88.3022 24.5788 87.6512 24.3184C87.0131 24.0449 86.3296 23.9082 85.6004 23.9082C84.8712 23.9082 84.1811 24.0449 83.5301 24.3184C82.8921 24.5788 82.3322 24.9629 81.8504 25.4707C81.3816 25.9655 81.0105 26.5645 80.7371 27.2676C80.4637 27.9577 80.3269 28.7324 80.3269 29.5918C80.3269 30.3991 80.4637 31.1478 80.7371 31.8379C81.0105 32.528 81.3816 33.127 81.8504 33.6348C82.3322 34.1426 82.8921 34.5462 83.5301 34.8457C84.1811 35.1322 84.8712 35.2754 85.6004 35.2754C86.3296 35.2754 87.0131 35.1387 87.6512 34.8652C88.3022 34.5918 88.8686 34.2077 89.3504 33.7129C89.8322 33.2181 90.2098 32.6191 90.4832 31.916C90.7697 31.2129 90.9129 30.4382 90.9129 29.5918ZM104.565 40.2363H99.2332V19.3184H100.522L102.28 21.3496C103.139 20.5684 104.109 19.9694 105.19 19.5527C106.284 19.123 107.423 18.9082 108.608 18.9082C109.884 18.9082 111.089 19.1556 112.221 19.6504C113.354 20.1322 114.344 20.8027 115.19 21.6621C116.037 22.5085 116.701 23.5046 117.182 24.6504C117.677 25.7832 117.925 26.9941 117.925 28.2832V40.2363H112.593V28.2832C112.593 27.7363 112.488 27.222 112.28 26.7402C112.072 26.2454 111.785 25.8158 111.421 25.4512C111.056 25.0866 110.633 24.8001 110.151 24.5918C109.669 24.3835 109.155 24.2793 108.608 24.2793C108.048 24.2793 107.521 24.3835 107.026 24.5918C106.531 24.8001 106.102 25.0866 105.737 25.4512C105.373 25.8158 105.086 26.2454 104.878 26.7402C104.669 27.222 104.565 27.7363 104.565 28.2832V40.2363ZM131.948 40.2363C130.659 40.2363 129.448 39.9954 128.315 39.5137C127.182 39.0189 126.186 38.3483 125.327 37.502C124.481 36.6426 123.81 35.6465 123.315 34.5137C122.833 33.3809 122.593 32.1699 122.593 30.8809V24.6699H119.995V19.3574H122.593V10.998H127.905V19.3574H135.991V24.6699H127.905V30.8809C127.905 31.4408 128.009 31.9681 128.218 32.4629C128.426 32.9447 128.712 33.3678 129.077 33.7324C129.442 34.097 129.871 34.39 130.366 34.6113C130.861 34.8197 131.388 34.9238 131.948 34.9238H135.991V40.2363H131.948ZM144.331 40.2363H138.999V19.3184H140.288L142.046 21.7988C142.905 21.0176 143.882 20.4186 144.975 20.002C146.069 19.5723 147.202 19.3574 148.374 19.3574H153.081V24.6699H148.374C147.814 24.6699 147.287 24.7741 146.792 24.9824C146.297 25.1908 145.867 25.4772 145.503 25.8418C145.138 26.2064 144.852 26.6361 144.643 27.1309C144.435 27.6257 144.331 28.153 144.331 28.7129V40.2363ZM175.386 29.5918C175.386 31.1543 175.106 32.6126 174.546 33.9668C173.986 35.3079 173.224 36.4733 172.261 37.4629C171.297 38.4395 170.164 39.2142 168.862 39.7871C167.573 40.347 166.186 40.627 164.702 40.627C163.231 40.627 161.844 40.347 160.542 39.7871C159.253 39.2142 158.12 38.4395 157.143 37.4629C156.18 36.4733 155.418 35.3079 154.858 33.9668C154.298 32.6126 154.018 31.1543 154.018 29.5918C154.018 28.0033 154.298 26.5319 154.858 25.1777C155.418 23.8236 156.18 22.6582 157.143 21.6816C158.12 20.6921 159.253 19.9173 160.542 19.3574C161.844 18.7975 163.231 18.5176 164.702 18.5176C166.186 18.5176 167.573 18.7845 168.862 19.3184C170.164 19.8392 171.297 20.5879 172.261 21.5645C173.224 22.528 173.986 23.6934 174.546 25.0605C175.106 26.4147 175.386 27.9251 175.386 29.5918ZM170.014 29.5918C170.014 28.7324 169.871 27.9577 169.585 27.2676C169.311 26.5645 168.934 25.9655 168.452 25.4707C167.97 24.9629 167.404 24.5788 166.753 24.3184C166.115 24.0449 165.431 23.9082 164.702 23.9082C163.973 23.9082 163.283 24.0449 162.632 24.3184C161.994 24.5788 161.434 24.9629 160.952 25.4707C160.483 25.9655 160.112 26.5645 159.839 27.2676C159.565 27.9577 159.429 28.7324 159.429 29.5918C159.429 30.3991 159.565 31.1478 159.839 31.8379C160.112 32.528 160.483 33.127 160.952 33.6348C161.434 34.1426 161.994 34.5462 162.632 34.8457C163.283 35.1322 163.973 35.2754 164.702 35.2754C165.431 35.2754 166.115 35.1387 166.753 34.8652C167.404 34.5918 167.97 34.2077 168.452 33.7129C168.934 33.2181 169.311 32.6191 169.585 31.916C169.871 31.2129 170.014 30.4382 170.014 29.5918ZM183.667 40.2363H178.335V19.3184H179.624L181.382 21.3496C182.241 20.5684 183.211 19.9694 184.292 19.5527C185.386 19.123 186.525 18.9082 187.71 18.9082C188.986 18.9082 190.19 19.1556 191.323 19.6504C192.456 20.1322 193.445 20.8027 194.292 21.6621C195.138 22.5085 195.802 23.5046 196.284 24.6504C196.779 25.7832 197.026 26.9941 197.026 28.2832V40.2363H191.694V28.2832C191.694 27.7363 191.59 27.222 191.382 26.7402C191.173 26.2454 190.887 25.8158 190.522 25.4512C190.158 25.0866 189.734 24.8001 189.253 24.5918C188.771 24.3835 188.257 24.2793 187.71 24.2793C187.15 24.2793 186.623 24.3835 186.128 24.5918C185.633 24.8001 185.203 25.0866 184.839 25.4512C184.474 25.8158 184.188 26.2454 183.979 26.7402C183.771 27.222 183.667 27.7363 183.667 28.2832V40.2363Z" fill="#FFF500"/>
    <path d="M75.7837 11.7843C78.1636 12.1064 80.4479 12.8655 82.6538 13.7555C84.6132 14.5516 86.5218 15.4806 88.3759 16.4966C88.0632 15.4161 87.1024 13.0382 84.4854 11.6298C82.4635 10.5416 79.453 10.0274 74.9921 11.1127C74.754 11.1758 74.5726 11.3496 74.5175 11.5913C74.4563 11.8297 74.5294 12.0732 74.7118 12.2386C75.7825 13.1973 76.7334 14.014 77.5348 14.6521C79.423 16.1567 85.8512 19.2857 88.1021 17.2693C84.2502 15.0101 80.1436 12.9653 75.7333 12.1604C75.4901 12.1225 75.5341 11.743 75.7866 11.7781L75.7837 11.7843Z" fill="#FFF500"/>
    <path d="M92.4172 16.8339C91.4357 16.9001 90.4458 17.0444 89.4829 17.3066C89.4152 17.3219 89.3432 17.3452 89.2723 17.3665C89.0597 17.4303 88.8437 17.5002 88.6297 17.5762L88.6183 17.583C88.566 17.5936 88.5166 17.6135 88.4651 17.6323C87.8793 17.8468 87.3108 18.1301 86.7794 18.4643C86.463 18.6584 86.1652 18.8806 85.8808 19.1256L85.8748 19.1223C85.6941 19.2757 85.5202 19.4354 85.3541 19.6097C85.6173 19.8314 85.8462 20.1071 86.0295 20.4099C87.7921 18.9164 90.1785 18.5158 92.455 18.5884C92.9676 18.6058 93.3974 18.1626 93.36 17.6463C93.3266 17.1657 92.9039 16.7987 92.4234 16.8321L92.4172 16.8339Z" fill="#FFF500"/>
</svg>
