<svg width="16" height="16" viewBox="0 0 16 16" fill="none" xmlns="http://www.w3.org/2000/svg">
    <g clip-path="url(#clip0_53_2)">
        <path d="M3.46825 1.88464C5.3025 3.26639 7.27575 6.06764 8 7.57089V11.5414C8 11.4569 7.9675 11.5524 7.8975 11.7581C7.5195 12.8721 6.043 17.2199 2.66675 13.7441C0.889 11.9141 1.712 10.0841 4.948 9.53164C3.09675 9.84764 1.0155 9.32539 0.4445 7.27789C0.28 6.68889 0 3.06089 0 2.57089C0 0.11639 2.14475 0.88789 3.46825 1.88464ZM12.5317 1.88464C10.6975 3.26639 8.72425 6.06764 8 7.57089V11.5414C8 11.4569 8.0325 11.5524 8.1025 11.7581C8.4805 12.8721 9.957 17.2199 13.3333 13.7441C15.111 11.9141 14.288 10.0841 11.052 9.53164C12.9033 9.84764 14.9845 9.32539 15.5555 7.27789C15.72 6.68889 16 3.06089 16 2.57089C16 0.11639 13.8555 0.88789 12.5317 1.88464Z" fill="white"/>
    </g>
    <defs>
        <clipPath id="clip0_53_2">
            <rect width="16" height="16" fill="white"/>
        </clipPath>
    </defs>
</svg>
