<svg xmlns="http://www.w3.org/2000/svg" width="24" height="24"><path fill="#fff" d="M20.3 4.4a19.8 19.8 0 0 0-4.9-1.5L14.7 4a18.3 18.3 0 0 0-5.4 0A12.6 12.6 0 0 0 8.6 3a19.7 19.7 0 0 0-5 1.5C.6 9-.4 13.6.1 18.1a19.9 19.9 0 0 0 6 3h.1a14 14 0 0 0 1.2-2 13.1 13.1 0 0 1-1.9-1V18a10.2 10.2 0 0 0 .4-.3c4 1.8 8.2 1.8 12.1 0h.1l.4.3v.1a12.3 12.3 0 0 1-2 1l1.3 2a19.8 19.8 0 0 0 6-3h.1c.5-5.2-.8-9.7-3.6-13.7zM8 15.4c-1.2 0-2.1-1.2-2.1-2.5s1-2.4 2.1-2.4c1.2 0 2.2 1 2.2 2.4 0 1.3-1 2.4-2.2 2.4zm8 0c-1.2 0-2.2-1.2-2.2-2.5s1-2.4 2.2-2.4c1.2 0 2.2 1 2.2 2.4 0 1.3-1 2.4-2.2 2.4z"/></svg>